# xmcd CD database file
#
# Track frame offsets:
#	183
#	19605
#	46820
#	66530
#	85498
#	105875
#
# Disc length: 2595 seconds
#
# Revision: 0
# Processed by: cddbd v1.5.1PL0 Copyright (c) Steve Scherf et al.
# Submitted via: CDex 1.51
#
DISCID=430a2106
DTITLE=Olfield - variadas
DYEAR=1900
DGENRE=Blues
TTITLE0=one
TTITLE1=two
TTITLE2=three
TTITLE3=four
TTITLE4=five
TTITLE5=six
EXTD=
EXTT0=
EXTT1=
EXTT2=
EXTT3=
EXTT4=
EXTT5=
PLAYORDER=
